SplineFontDB: 3.2
FontName: NeoFuthark
FullName: NeoFuthark
FamilyName: NeoFuthark
Weight: Regular
Copyright: Copyright (c) 2021, Caj Larsson
UComments: "2021-6-6: Created with FontForge (http://fontforge.org)"
Version: 001.000
ItalicAngle: 0
UnderlinePosition: -102
UnderlineWidth: 51
Ascent: 819
Descent: 205
InvalidEm: 0
LayerCount: 2
Layer: 0 0 "Back" 1
Layer: 1 0 "Fore" 0
XUID: [1021 993 1476599607 11257049]
FSType: 0
OS2Version: 0
OS2_WeightWidthSlopeOnly: 0
OS2_UseTypoMetrics: 1
CreationTime: 1622957551
ModificationTime: 1623046080
PfmFamily: 17
TTFWeight: 400
TTFWidth: 5
LineGap: 92
VLineGap: 0
OS2TypoAscent: 0
OS2TypoAOffset: 1
OS2TypoDescent: 0
OS2TypoDOffset: 1
OS2TypoLinegap: 92
OS2WinAscent: 0
OS2WinAOffset: 1
OS2WinDescent: 0
OS2WinDOffset: 1
HheadAscent: 0
HheadAOffset: 1
HheadDescent: 0
HheadDOffset: 1
OS2Vendor: 'PfEd'
MarkAttachClasses: 1
DEI: 91125
LangName: 1033
Encoding: Custom
Compacted: 1
UnicodeInterp: none
NameList: AGL For New Fonts
DisplaySize: -48
AntiAlias: 1
FitToEm: 0
WidthSeparation: 150
WinInfo: 0 17 20
BeginPrivate: 0
EndPrivate
TeXData: 1 0 0 346030 173015 115343 0 1048576 115343 783286 444596 497025 792723 393216 433062 380633 303038 157286 324010 404750 52429 2506097 1059062 262144
BeginChars: 26 26

StartChar: fehu
Encoding: 0 5792 0
Width: 329
VWidth: 0
Flags: W
HStem: 649 47<391.072 438.928>
VStem: 254 47<53.0716 364 431 695.928> 391 48<649.065 695.928>
LayerCount: 2
Fore
SplineSet
391 672 m 0
 391 685 402 696 415 696 c 0
 428 696 439 685 439 672 c 0
 439 659 428 649 415 649 c 0
 402 649 391 659 391 672 c 0
254 77 m 2
 254 189 l 1
 254 265 l 1
 254 339 l 1
 254 410 l 1
 254 483 l 1
 254 560 l 1
 254 672 l 2
 254 685 264 696 277 696 c 0
 288 696 301 685 301 672 c 2
 301 560 l 1
 301 483 l 1
 301 431 l 1
 410 540 l 2
 414 544 420 547 426 547 c 0
 432 547 439 544 443 540 c 0
 447 536 450 530 450 524 c 0
 450 518 447 511 443 507 c 2
 301 364 l 1
 301 339 l 1
 301 265 l 1
 301 189 l 1
 301 77 l 2
 301 64 290 53 277 53 c 0
 264 53 254 64 254 77 c 2
EndSplineSet
Validated: 1
EndChar

StartChar: uni16A0
Encoding: -1 5792 1
Width: 333
VWidth: 0
Flags: W
HStem: 665 48<210.214 258.803>
VStem: 70 48<54.2145 373 441 712.786> 210 49<665.18 712.786>
LayerCount: 2
Fore
SplineSet
210 688 m 0
 210 701 222 713 235 713 c 0
 248 713 259 701 259 688 c 0
 259 675 248 665 235 665 c 0
 222 665 210 675 210 688 c 0
70 79 m 2
 70 194 l 1
 70 271 l 1
 70 347 l 1
 70 420 l 1
 70 495 l 1
 70 573 l 1
 70 688 l 2
 70 701 80 713 93 713 c 0
 104 713 118 701 118 688 c 2
 118 573 l 1
 118 495 l 1
 118 441 l 1
 229 553 l 2
 233 557 240 560 246 560 c 0
 252 560 259 557 263 553 c 0
 267 549 270 543 270 537 c 0
 270 531 267 523 263 519 c 2
 118 373 l 1
 118 347 l 1
 118 271 l 1
 118 194 l 1
 118 79 l 2
 118 66 106 54 93 54 c 0
 80 54 70 66 70 79 c 2
EndSplineSet
Validated: 1
EndChar

StartChar: uruz
Encoding: 2 5794 2
Width: 401
VWidth: 0
Flags: W
HStem: 54 48<280.197 327.803>
VStem: 73 48<54.078 630> 280 48<54.078 101.935 258.072 493.868>
LayerCount: 2
Fore
SplineSet
280 79 m 0
 280 92 291 102 304 102 c 0
 317 102 328 92 328 79 c 0
 328 66 317 54 304 54 c 0
 291 54 280 66 280 79 c 0
73 79 m 2
 73 688 l 2
 73 700 83 713 95 713 c 0
 103 713 109 711 114 706 c 0
 183 637 252 568 321 499 c 0
 325 495 328 486 328 481 c 2
 328 282 l 2
 328 269 317 258 304 258 c 0
 291 258 280 269 280 282 c 0
 280 345 280 409 280 472 c 1
 258 494 238 513 216 535 c 0
 184 567 153 598 121 630 c 1
 121 79 l 2
 121 66 110 54 97 54 c 0
 84 54 73 66 73 79 c 2
EndSplineSet
Validated: 1
EndChar

StartChar: uni16A6
Encoding: 3 5798 3
Width: 330
VWidth: 0
Flags: W
HStem: 279 48<150.065 197.922>
VStem: 73 48<50.078 473 542 708.922> 150 48<279.197 326.803>
LayerCount: 2
Fore
SplineSet
173 327 m 0
 186 327 198 316 198 303 c 0
 198 290 186 279 173 279 c 0
 160 279 150 290 150 303 c 0
 150 316 160 327 173 327 c 0
97 709 m 0
 110 709 121 697 121 684 c 2
 121 569 l 1
 121 542 l 1
 266 396 l 2
 270 392 273 384 273 379 c 0
 273 374 271 365 267 361 c 1
 266 361 l 1
 262 357 255 354 250 354 c 0
 245 354 236 357 232 361 c 2
 121 473 l 1
 121 416 l 1
 121 343 l 1
 121 267 l 1
 121 189 l 1
 121 75 l 2
 121 62 110 50 97 50 c 0
 84 50 73 62 73 75 c 2
 73 189 l 1
 73 267 l 1
 73 343 l 1
 73 416 l 1
 73 490 l 1
 73 569 l 1
 73 684 l 2
 73 697 84 709 97 709 c 0
EndSplineSet
Validated: 1
EndChar

StartChar: uni16A8
Encoding: 4 5800 4
Width: 338
VWidth: 0
Flags: W
HStem: 359 49<225.214 272.82>
VStem: 73 48<54.078 630> 225 48<359.197 407.786>
LayerCount: 2
Fore
SplineSet
273 383 m 0
 273 370 263 359 250 359 c 0
 237 359 225 370 225 383 c 0
 225 396 237 408 250 408 c 0
 263 408 273 396 273 383 c 0
97 709 m 4
 108 709 116 703 121 699 c 6
 266 553 l 2
 270 549 273 541 273 536 c 0
 273 531 270 523 266 519 c 0
 262 515 255 512 250 512 c 0
 245 512 236 515 232 519 c 2
 121 630 l 1
 121 573 l 1
 121 495 l 1
 121 420 l 1
 121 347 l 1
 121 271 l 1
 121 194 l 1
 121 79 l 2
 121 66 110 54 97 54 c 0
 84 54 73 66 73 79 c 2
 73 194 l 1
 73 271 l 1
 73 347 l 1
 73 420 l 1
 73 495 l 1
 73 573 l 1
 73 687 l 6
 73 696 84 709 97 709 c 4
EndSplineSet
Validated: 1
EndChar

StartChar: uni16B1
Encoding: 5 5809 5
Width: 336
VWidth: 0
Flags: W
HStem: 212 49<225.214 272.82>
VStem: 73 48<60.0716 398.968 447 636 679.721 708.916> 225 48<212.214 260.803>
LayerCount: 2
Fore
SplineSet
121 636 m 1
 121 580 l 1
 121 501 l 1
 121 447 l 1
 215 542 l 1
 121 636 l 1
275 542 m 0
 275 535 271 529 266 524 c 0
 211 466 121 379 121 379 c 1
 121 353 l 1
 121 278 l 1
 121 199 l 1
 121 84 l 2
 121 71 110 60 97 60 c 0
 84 60 73 71 73 84 c 2
 73 199 l 1
 73 278 l 1
 73 353 l 1
 73 389 l 1
 73 426 l 1
 73 501 l 1
 73 580 l 1
 73 687 l 6
 73 696 84 709 97 709 c 4
 108 709 116 703 121 699 c 6
 121 699 212 615 266 559 c 0
 271 554 275 549 275 542 c 0
250 261 m 0
 263 261 273 250 273 237 c 0
 273 224 263 212 250 212 c 0
 237 212 225 224 225 237 c 0
 225 250 237 261 250 261 c 0
EndSplineSet
Validated: 1
EndChar

StartChar: uni16B2
Encoding: 6 5810 6
Width: 368
VWidth: 0
Flags: W
HStem: 153 48<257.197 304.82>
VStem: 257 48<153.18 200.922>
LayerCount: 2
Fore
SplineSet
281 201 m 2
 282 201 l 2
 295 201 305 189 305 176 c 0
 305 163 295 153 282 153 c 0
 269 153 257 163 257 176 c 0
 257 189 268 201 281 201 c 2
281 614 m 0
 286 614 294 611 298 607 c 0
 303 602 305 597 305 591 c 0
 305 585 303 578 298 573 c 2
 217 493 l 1
 162 436 l 1
 109 383 l 1
 91 367 l 2
 86 362 81 359 75 359 c 0
 69 359 62 362 57 367 c 0
 52 372 50 378 50 384 c 0
 50 390 52 395 57 400 c 2
 74 418 l 1
 127 471 l 1
 183 526 l 1
 264 607 l 2
 268 611 276 614 281 614 c 0
EndSplineSet
Validated: 1
EndChar

StartChar: uni16B7
Encoding: 7 5815 7
Width: 513
VWidth: 0
Flags: W
HStem: 54 49<402.197 450.786>
VStem: 402 49<54.2145 102.803>
LayerCount: 2
Fore
SplineSet
426 103 m 0
 439 103 451 92 451 79 c 0
 451 66 439 54 426 54 c 0
 413 54 402 66 402 79 c 0
 402 92 413 103 426 103 c 0
75 713 m 0
 83 713 91 707 95 700 c 2
 130 640 l 1
 153 601 l 1
 191 534 l 1
 251 432 l 1
 309 534 l 1
 348 601 l 1
 371 640 l 1
 406 700 l 2
 410 707 418 713 426 713 c 0
 429 713 435 712 438 710 c 0
 446 706 451 696 451 688 c 0
 451 684 449 681 447 677 c 2
 413 616 l 1
 390 578 l 1
 355 517 l 1
 350 509 l 1
 316 449 l 1
 279 384 l 1
 251 335 l 1
 243 322 l 1
 205 256 l 1
 197 242 l 1
 191 234 l 1
 165 187 l 1
 153 166 l 1
 130 127 l 1
 95 67 l 2
 91 59 83 54 75 54 c 0
 71 54 66 56 62 58 c 0
 54 62 50 71 50 79 c 0
 50 83 51 87 53 91 c 2
 88 152 l 1
 111 190 l 1
 151 258 l 1
 222 384 l 1
 151 509 l 1
 111 578 l 1
 88 616 l 1
 53 677 l 2
 51 681 50 684 50 688 c 0
 50 696 54 706 62 710 c 0
 65 712 72 713 75 713 c 0
EndSplineSet
Validated: 1
EndChar

StartChar: uni16B9
Encoding: 8 5817 8
Width: 331
VWidth: 0
Flags: W
HStem: 435 48<150.18 197.786>
VStem: 73 48<54.078 630> 150 48<435.214 482.82>
LayerCount: 2
Fore
SplineSet
173 483 m 0
 186 483 198 473 198 460 c 0
 198 447 186 435 173 435 c 0
 160 435 150 447 150 460 c 0
 150 473 160 483 173 483 c 0
73 687 m 2
 73 696 84 709 97 709 c 0
 108 709 116 703 121 699 c 2
 266 553 l 2
 270 549 273 541 273 536 c 0
 273 531 271 523 267 519 c 1
 266 519 l 1
 262 515 255 512 250 512 c 0
 245 512 236 515 232 519 c 2
 121 630 l 1
 121 573 l 1
 121 496 l 1
 121 420 l 1
 121 347 l 1
 121 272 l 1
 121 194 l 1
 121 79 l 2
 121 66 110 54 97 54 c 0
 84 54 73 66 73 79 c 2
 73 194 l 1
 73 272 l 1
 73 347 l 1
 73 420 l 1
 73 496 l 1
 73 573 l 1
 73 687 l 2
EndSplineSet
Validated: 1
EndChar

StartChar: uni16BA
Encoding: 9 5818 9
Width: 407
VWidth: 0
Flags: W
HStem: 54 48<280.197 327.803>
VStem: 73 48<54.078 429 498 712.928> 280 48<54.078 101.935 166.072 270 339 712.922>
LayerCount: 2
Fore
SplineSet
303 102 m 2
 304 102 l 2
 317 102 328 92 328 79 c 0
 328 66 317 54 304 54 c 0
 291 54 280 66 280 79 c 0
 280 92 290 102 303 102 c 2
97 713 m 0
 110 713 121 702 121 689 c 2
 121 574 l 1
 121 498 l 1
 131 487 l 1
 184 434 l 1
 240 379 l 1
 280 339 l 1
 280 439 l 1
 280 688 l 2
 280 701 291 713 304 713 c 0
 317 713 328 701 328 688 c 2
 328 439 l 1
 328 190 l 2
 328 177 317 166 304 166 c 0
 291 166 280 177 280 190 c 2
 280 270 l 1
 206 344 l 1
 150 400 l 1
 121 429 l 1
 121 420 l 1
 121 348 l 1
 121 272 l 1
 121 194 l 1
 121 79 l 2
 121 66 110 54 97 54 c 0
 84 54 73 66 73 79 c 2
 73 194 l 1
 73 272 l 1
 73 348 l 1
 73 420 l 1
 73 496 l 1
 73 574 l 1
 73 689 l 2
 73 702 84 713 97 713 c 0
EndSplineSet
Validated: 1
EndChar

StartChar: uni16BE
Encoding: 10 5822 10
Width: 455
VWidth: 0
Flags: WO
HStem: 206 49<356.197 403.803>
VStem: 203 49<54.0716 373 441 712.786> 356 48<206.072 254.922>
LayerCount: 2
Fore
SplineSet
380 255 m 0
 393 255 404 243 404 230 c 0
 404 217 393 206 380 206 c 0
 367 206 356 217 356 230 c 0
 356 243 367 255 380 255 c 0
227 713 m 0
 240 713 252 701 252 688 c 2
 252 573 l 1
 252 495 l 1
 252 419 l 1
 252 347 l 1
 252 272 l 1
 252 193 l 1
 252 78 l 2
 252 65 241 54 228 54 c 2
 227 54 l 2
 214 54 203 65 203 78 c 2
 203 193 l 1
 203 272 l 1
 203 347 l 1
 203 373 l 1
 58 518 l 2
 54 522 51 530 51 536 c 0
 51 542 54 549 58 553 c 0
 62 557 69 560 75 560 c 0
 81 560 88 557 92 553 c 2
 203 441 l 1
 203 495 l 1
 203 573 l 1
 203 688 l 2
 203 701 214 713 227 713 c 0
EndSplineSet
Validated: 1
EndChar

StartChar: uni16C1
Encoding: 11 5825 11
Width: 200
VWidth: 0
Flags: W
HStem: 54 49<73.1971 121.786>
VStem: 73 49<54.2145 102.803 229.214 712.786>
LayerCount: 2
Fore
SplineSet
97 103 m 0
 110 103 122 92 122 79 c 0
 122 66 110 54 97 54 c 0
 84 54 73 66 73 79 c 0
 73 92 84 103 97 103 c 0
97 713 m 0
 110 713 122 701 122 688 c 2
 122 509 l 1
 122 433 l 1
 122 254 l 2
 122 241 110 229 97 229 c 0
 84 229 73 241 73 254 c 2
 73 433 l 1
 73 509 l 1
 73 688 l 2
 73 701 84 713 97 713 c 0
EndSplineSet
Validated: 1
EndChar

StartChar: uni16C3
Encoding: 12 5827 12
Width: 612
VWidth: 0
Flags: W
HStem: 54 48<299.214 347.803>
VStem: 299 49<54.2145 101.82>
LayerCount: 2
Fore
SplineSet
324 102 m 4
 337 102 348 92 348 79 c 4
 348 66 337 54 324 54 c 4
 311 54 299 66 299 79 c 4
 299 92 311 102 324 102 c 4
324 517 m 4
 329 517 337 514 341 510 c 6
 422 428 l 5
 477 373 l 5
 530 319 l 5
 548 303 l 6
 552 299 555 292 555 286 c 4
 555 280 552 272 548 268 c 4
 544 264 536 261 530 261 c 4
 524 261 517 264 513 268 c 6
 497 286 l 5
 443 339 l 5
 387 394 l 5
 306 475 l 6
 302 479 299 487 299 493 c 4
 299 499 302 506 306 510 c 4
 310 514 319 517 324 517 c 4
276 713 m 4
 281 713 289 710 293 706 c 4
 297 702 300 694 300 688 c 4
 300 682 297 676 293 672 c 6
 212 590 l 5
 157 535 l 5
 103 481 l 5
 157 428 l 5
 212 373 l 5
 293 292 l 6
 297 288 300 280 300 274 c 4
 300 268 297 261 293 257 c 4
 289 253 282 250 276 250 c 4
 270 250 263 253 259 257 c 6
 178 338 l 5
 122 394 l 5
 69 447 l 5
 52 464 l 6
 48 468 45 475 45 481 c 4
 45 487 48 495 52 499 c 6
 69 516 l 5
 122 569 l 5
 178 625 l 5
 259 706 l 6
 263 710 271 713 276 713 c 4
EndSplineSet
Validated: 1
EndChar

StartChar: uni16C7
Encoding: 13 5831 13
Width: 452
VWidth: 0
Flags: W
HStem: 512 48<348.078 395.935>
VStem: 196 48<137 712.922> 348 48<512.197 559.803>
LayerCount: 2
Fore
SplineSet
373 560 m 4
 386 560 396 549 396 536 c 4
 396 523 386 512 373 512 c 4
 360 512 348 523 348 536 c 4
 348 549 360 560 373 560 c 4
198 61 m 6
 50 214 l 6
 46 218 43 226 43 231 c 4
 43 236 46 244 50 248 c 4
 54 252 63 255 68 255 c 4
 73 255 80 252 84 248 c 6
 196 137 l 5
 196 194 l 5
 196 272 l 5
 196 347 l 5
 196 420 l 5
 196 496 l 5
 196 573 l 5
 196 688 l 6
 196 701 207 713 220 713 c 4
 233 713 244 701 244 688 c 6
 244 573 l 5
 244 496 l 5
 244 420 l 5
 244 347 l 5
 244 272 l 5
 244 194 l 5
 244 79 l 6
 244 70 235 55 222 54 c 4
 211 53 203 56 198 61 c 6
EndSplineSet
Validated: 1
EndChar

StartChar: uni16C8
Encoding: 14 5832 14
Width: 489
VWidth: 0
Flags: W
HStem: 55 48<378.072 425.928>
VStem: 73 48<137 631> 378 48<55.0716 102.928>
LayerCount: 2
Fore
SplineSet
402 103 m 0
 415 103 426 92 426 79 c 0
 426 66 415 55 402 55 c 0
 389 55 378 66 378 79 c 0
 378 92 389 103 402 103 c 0
73 79 m 0
 73 123 73 194 73 194 c 1
 73 272 l 1
 73 347 l 1
 73 420 l 1
 73 496 l 1
 73 574 l 1
 73 687 l 6
 73 696 84 709 97 709 c 4
 108 709 116 704 121 699 c 6
 250 570 l 1
 385 706 l 2
 389 710 397 713 402 713 c 0
 407 713 416 710 420 706 c 0
 424 702 427 694 427 689 c 0
 427 684 424 676 420 672 c 2
 420 672 327 579 267 519 c 0
 261 514 255 512 250 512 c 0
 245 512 238 514 232 519 c 2
 121 631 l 1
 121 574 l 1
 121 496 l 1
 121 420 l 1
 121 347 l 1
 121 272 l 1
 121 194 l 1
 121 137 l 1
 232 249 l 2
 236 253 245 256 250 256 c 0
 255 256 262 253 266 249 c 1
 267 249 l 1
 271 245 273 236 273 231 c 0
 273 226 270 218 266 214 c 2
 266 214 173 120 114 61 c 0
 107 54 93 54 86 57 c 0
 80 59 73 68 73 79 c 0
EndSplineSet
Validated: 1
EndChar

StartChar: uni16C9
Encoding: 15 5833 15
Width: 452
VWidth: 0
Flags: W
HStem: 665 48<198.072 245.928>
VStem: 198 48<54.0716 527 665.072 712.928>
LayerCount: 2
Fore
SplineSet
221 713 m 2
 222 713 l 2
 235 713 246 702 246 689 c 0
 246 676 235 665 222 665 c 0
 209 665 198 676 198 689 c 0
 198 702 208 713 221 713 c 2
198 527 m 1
 53 672 l 2
 49 676 46 684 46 689 c 0
 46 694 49 702 53 706 c 0
 57 710 65 713 70 713 c 0
 75 713 83 710 87 706 c 2
 222 571 l 1
 356 706 l 2
 360 710 369 713 374 713 c 0
 379 713 386 710 390 706 c 0
 394 702 397 694 397 689 c 0
 397 684 394 676 390 672 c 2
 246 527 l 1
 246 270 l 1
 246 193 l 1
 246 78 l 2
 246 65 235 54 222 54 c 0
 209 54 198 65 198 78 c 2
 198 193 l 1
 198 270 l 1
 198 527 l 1
EndSplineSet
Validated: 1
EndChar

StartChar: uni16CA
Encoding: 16 5834 16
Width: 366
VWidth: 0
Flags: W
HStem: 54 48<49.2145 96.8202>
VStem: 49 48<54.2145 101.82>
LayerCount: 2
Fore
SplineSet
74 102 m 0
 87 102 97 92 97 79 c 0
 97 66 87 54 74 54 c 0
 61 54 49 66 49 79 c 0
 49 92 61 102 74 102 c 0
280 713 m 2
 281 713 l 2
 286 713 293 710 297 706 c 0
 301 702 304 694 304 688 c 0
 304 682 301 676 297 672 c 2
 216 590 l 1
 161 535 l 1
 108 481 l 1
 161 428 l 1
 216 373 l 1
 297 292 l 2
 301 288 304 280 304 274 c 0
 304 268 301 261 297 257 c 0
 293 253 286 250 280 250 c 0
 274 250 267 253 263 257 c 2
 182 338 l 1
 126 394 l 1
 73 447 l 1
 56 464 l 2
 52 468 49 476 49 481 c 0
 49 487 52 495 56 499 c 2
 73 516 l 1
 126 569 l 1
 182 625 l 1
 263 706 l 2
 267 710 275 713 280 713 c 2
EndSplineSet
Validated: 1
EndChar

StartChar: uni16CF
Encoding: 17 5839 17
Width: 465
VWidth: 0
Flags: W
HStem: 54 49<206.197 253.803>
VStem: 206 48<54.078 102.928 162.065 631>
LayerCount: 2
Fore
SplineSet
230 103 m 0
 243 103 254 92 254 79 c 0
 254 66 243 54 230 54 c 0
 217 54 206 66 206 79 c 0
 206 92 217 103 230 103 c 0
254 698 m 0
 315 637 400 553 400 553 c 2
 403 550 408 542 408 537 c 0
 408 532 404 523 400 519 c 0
 396 515 388 512 383 512 c 0
 378 512 370 515 366 519 c 2
 254 631 l 1
 254 379 l 1
 254 300 l 1
 254 185 l 2
 254 172 243 162 230 162 c 0
 217 162 206 172 206 185 c 2
 206 300 l 1
 206 379 l 1
 206 631 l 1
 94 519 l 2
 90 515 83 512 78 512 c 0
 73 512 64 515 60 519 c 0
 56 523 53 532 53 537 c 0
 53 542 56 549 60 553 c 2
 60 553 149 641 206 698 c 0
 214 706 221 712 230 712 c 0
 239 712 247 705 254 698 c 0
EndSplineSet
Validated: 1
EndChar

StartChar: uni16D2
Encoding: 18 5842 18
Width: 335
VWidth: 0
Flags: W
HStem: 130 48<150.065 197.922>
VStem: 73 48<54.078 325 441 630> 150 48<130.197 177.803>
LayerCount: 2
Fore
SplineSet
121 630 m 1
 121 573 l 1
 121 496 l 1
 121 441 l 1
 215 536 l 1
 121 630 l 1
173 178 m 0
 186 178 198 167 198 154 c 0
 198 141 186 130 173 130 c 0
 160 130 150 141 150 154 c 0
 150 167 160 178 173 178 c 0
97 713 m 0
 103 713 111 709 115 705 c 2
 265 554 l 1
 267 553 l 2
 271 549 273 541 273 536 c 0
 273 531 271 523 267 519 c 2
 266 518 l 1
 131 383 l 1
 267 248 l 2
 271 244 273 235 273 230 c 0
 273 225 271 217 267 213 c 0
 263 209 255 206 250 206 c 0
 245 206 236 209 232 213 c 2
 121 325 l 1
 121 272 l 1
 121 194 l 1
 121 79 l 2
 121 66 110 54 97 54 c 0
 84 54 73 66 73 79 c 2
 73 194 l 1
 73 272 l 1
 73 347 l 1
 73 420 l 1
 73 496 l 1
 73 573 l 1
 73 688 l 1
 73 689 l 2
 73 702 84 713 97 713 c 0
EndSplineSet
Validated: 1
EndChar

StartChar: uni16D6
Encoding: 19 5846 19
Width: 505
VWidth: 0
Flags: W
HStem: 54 48<378.197 425.803>
VStem: 73 48<53.078 630> 378 48<54.078 101.935 153.065 630>
LayerCount: 2
Fore
SplineSet
402 102 m 0
 415 102 426 92 426 79 c 0
 426 66 415 54 402 54 c 0
 389 54 378 66 378 79 c 0
 378 92 389 102 402 102 c 0
427 690 m 2
 426 573 l 1
 426 517 l 1
 426 495 l 1
 426 445 l 1
 426 419 l 1
 426 370 l 1
 426 347 l 1
 426 291 l 1
 426 271 l 1
 426 176 l 2
 426 163 415 153 402 153 c 0
 389 153 378 163 378 176 c 2
 378 194 l 1
 378 271 l 1
 378 291 l 1
 378 347 l 1
 378 370 l 1
 378 419 l 1
 378 445 l 1
 378 495 l 1
 378 517 l 1
 378 573 l 1
 378 593 l 1
 378 630 l 1
 268 519 l 1
 266 518 l 2
 262 514 255 511 250 511 c 0
 245 511 236 514 232 518 c 2
 121 630 l 1
 121 573 l 1
 121 495 l 1
 121 419 l 1
 121 347 l 1
 121 271 l 1
 121 193 l 1
 121 78 l 2
 121 65 110 53 97 53 c 0
 84 53 73 65 73 78 c 2
 73 193 l 1
 73 271 l 1
 73 347 l 1
 73 419 l 1
 73 495 l 1
 73 573 l 1
 73 689 l 1
 73 690 l 2
 73 702 85 712 97 712 c 0
 103 712 111 709 115 705 c 2
 250 569 l 1
 385 705 l 2
 391 711 402 714 408 712 c 0
 412 711 427 705 427 690 c 2
EndSplineSet
Validated: 1
EndChar

StartChar: uni16D7
Encoding: 20 5847 20
Width: 506
VWidth: 0
Flags: W
HStem: 54 49<378.197 426.786>
VStem: 73 48<54.078 374 441 630> 378 49<54.2145 102.803 154.18 374 440 630>
LayerCount: 2
Fore
SplineSet
120 630 m 1
 120 573 l 1
 120 495 l 1
 120 441 l 1
 215 537 l 1
 120 630 l 1
377 630 m 1
 283 536 l 1
 377 440 l 1
 377 445 l 1
 377 495 l 1
 377 517 l 1
 377 573 l 1
 377 593 l 1
 377 630 l 1
402 103 m 0
 415 103 427 92 427 79 c 0
 427 66 415 54 402 54 c 0
 389 54 378 66 378 79 c 0
 378 92 389 103 402 103 c 0
385 703 m 2
 394 712 405 712 408 711 c 0
 413 710 427 702 427 689 c 2
 427 574 l 1
 427 518 l 1
 427 496 l 1
 427 446 l 1
 427 420 l 1
 427 371 l 1
 427 348 l 1
 427 292 l 1
 427 272 l 1
 427 177 l 2
 427 164 415 154 402 154 c 0
 389 154 378 164 378 177 c 2
 378 195 l 1
 378 272 l 1
 378 292 l 1
 378 348 l 1
 378 371 l 1
 378 374 l 1
 250 502 l 1
 121 374 l 1
 121 348 l 1
 121 272 l 1
 121 194 l 1
 121 79 l 2
 121 66 110 54 97 54 c 0
 84 54 73 66 73 79 c 2
 73 194 l 1
 73 272 l 1
 73 348 l 1
 73 382 l 1
 73 383 l 1
 73 385 l 1
 73 420 l 1
 73 496 l 1
 73 574 l 1
 73 688 l 1
 73 689 l 2
 73 702 84 713 97 713 c 0
 103 713 111 710 115 706 c 2
 250 570 l 1
 385 703 l 2
EndSplineSet
Validated: 1
EndChar

StartChar: uni16DA
Encoding: 21 5850 21
Width: 329
VWidth: 0
Flags: W
HStem: 512 48<225.078 272.935>
VStem: 73 48<54.078 712.922> 225 48<512.197 559.803>
LayerCount: 2
Fore
SplineSet
250 560 m 0
 263 560 273 549 273 536 c 0
 273 523 263 512 250 512 c 0
 237 512 225 523 225 536 c 0
 225 549 237 560 250 560 c 0
97 713 m 0
 110 713 121 701 121 688 c 2
 121 573 l 1
 121 496 l 1
 121 420 l 1
 121 347 l 1
 121 272 l 1
 121 194 l 1
 121 79 l 2
 121 66 110 54 97 54 c 0
 84 54 73 66 73 79 c 2
 73 194 l 1
 73 272 l 1
 73 347 l 1
 73 420 l 1
 73 496 l 1
 73 573 l 1
 73 688 l 2
 73 701 84 713 97 713 c 0
EndSplineSet
Validated: 1
EndChar

StartChar: uni16DC
Encoding: 22 5852 22
Width: 466
VWidth: 0
Flags: W
HStem: 206 48<204.072 251.928>
VStem: 204 48<206.072 253.928>
LayerCount: 2
Fore
SplineSet
228 254 m 0
 241 254 252 243 252 230 c 0
 252 217 241 206 228 206 c 0
 215 206 204 217 204 230 c 0
 204 243 215 254 228 254 c 0
228 560 m 0
 233 560 241 557 245 553 c 2
 247 551 l 1
 398 400 l 6
 402 396 404 388 404 383 c 4
 404 378 402 370 398 366 c 4
 394 362 386 358 381 358 c 0
 376 358 368 362 364 366 c 2
 228 501 l 1
 92 366 l 2
 88 362 81 358 76 358 c 0
 71 358 62 362 58 366 c 0
 54 370 51 378 51 383 c 0
 51 388 54 396 58 400 c 2
 211 553 l 2
 215 557 223 560 228 560 c 0
EndSplineSet
Validated: 1
EndChar

StartChar: uni16DE
Encoding: 23 5854 23
Width: 808
VWidth: 0
Flags: W
HStem: 54 48<682.214 729.82>
VStem: 73 48<137 630> 682 48<54.2145 101.82 365.197 630>
LayerCount: 2
Fore
SplineSet
707 102 m 0
 720 102 730 92 730 79 c 0
 730 66 720 54 707 54 c 0
 694 54 682 66 682 79 c 0
 682 92 694 102 707 102 c 0
121 630 m 1
 121 573 l 1
 121 495 l 1
 121 419 l 1
 121 347 l 1
 121 271 l 1
 121 194 l 1
 121 137 l 1
 242 258 l 1
 256 271 l 1
 324 339 l 1
 368 383 l 1
 256 495 l 1
 121 630 l 1
121 699 m 2
 290 529 l 1
 401 418 l 1
 413 428 l 1
 432 447 l 1
 483 499 l 1
 513 528 l 1
 537 552 l 1
 592 607 l 1
 673 689 l 1
 688 703 l 2
 692 708 701 712 707 712 c 0
 720 712 730 701 730 688 c 2
 730 389 l 2
 730 376 720 365 707 365 c 0
 694 365 682 376 682 389 c 2
 682 630 l 1
 626 573 l 1
 570 518 l 1
 547 495 l 1
 517 465 l 1
 466 414 l 1
 455 402 l 1
 413 360 l 1
 401 349 l 1
 357 305 l 1
 346 294 l 1
 290 238 l 1
 276 223 l 1
 114 61 l 2
 107 56 102 54 96 54 c 0
 91 54 86 56 82 58 c 0
 76 62 73 72 73 79 c 2
 73 194 l 1
 73 271 l 1
 73 347 l 1
 73 419 l 1
 73 495 l 1
 73 573 l 1
 73 687 l 2
 73 696 84 709 97 709 c 0
 108 709 116 704 121 699 c 2
EndSplineSet
Validated: 1
EndChar

StartChar: uni16DF
Encoding: 24 5855 24
Width: 463
VWidth: 0
Flags: W
HStem: 130 48<352.078 399.935>
VStem: 352 48<130.197 177.803>
LayerCount: 2
Fore
SplineSet
224 578 m 1
 105 459 l 1
 224 341 l 1
 342 459 l 1
 224 578 l 1
394 476 m 2
 399 472 400 464 400 459 c 0
 400 454 398 445 394 441 c 2
 243 291 l 1
 242 290 l 1
 241 290 l 1
 241 289 l 1
 88 136 l 2
 84 132 77 129 72 129 c 0
 67 129 58 132 54 136 c 0
 50 140 47 149 47 154 c 0
 47 159 50 167 54 171 c 2
 189 306 l 1
 54 442 l 2
 50 446 47 454 47 459 c 2
 47 460 l 2
 47 465 50 472 54 476 c 2
 207 629 l 2
 211 633 219 636 224 636 c 0
 229 636 237 633 241 629 c 2
 243 628 l 1
 394 476 l 2
377 178 m 0
 390 178 400 167 400 154 c 0
 400 141 390 130 377 130 c 0
 364 130 352 141 352 154 c 0
 352 167 364 178 377 178 c 0
EndSplineSet
Validated: 1
EndChar

